<?xml version="1.0" encoding="UTF-8"?><svg id="pfad" xmlns="http://www.w3.org/2000/svg" viewBox="0 0 109.68 38.73"><defs><style>.cls-1{stroke:#005ca9;}.cls-1,.cls-2{fill:none;}.cls-3{fill:#005ca9;}.cls-2{stroke:#95b53d;}.cls-4{fill:#95b53d;}</style></defs><path class="cls-3" d="m60.76,8.67h3.67l6.64,13h-3.46l-1.49-2.92h-7.49l-1.37,2.92h-3.13l6.63-13Zm4.32,7.96l-2.7-5.65-2.7,5.65h5.4Z"/><path class="cls-3" d="m83.01,8.67v2.12h-4.95v10.88h-2.92v-10.88h-4.95v-2.12h12.82Z"/><path class="cls-3" d="m85.02,8.67h7.65c2.56,0,4.83.63,4.83,3.31,0,1.64-1.51,2.66-3.21,2.77v.13c1.69.14,3.87.83,3.87,3.29,0,1.42-1.01,3.49-5.2,3.49h-7.94v-13Zm2.92,5.29h4.16c1.42,0,2.27-.43,2.27-1.58,0-1.4-1.31-1.69-2.83-1.69h-3.6v3.28Zm0,5.69h4.03c1.78,0,3.06-.49,3.06-1.82,0-1.49-1.57-1.85-2.86-1.85h-4.23v3.67Z"/><path class="cls-3" d="m10.23,21.65h3.51c-.28-1.18-.45-2.41-.45-3.67C13.3,9.09,20.53,1.85,29.43,1.85s16.14,7.24,16.14,16.14c0,1.27-.17,2.49-.45,3.67h3.53c.14-1.11.2-2.24.13-3.4C48.17,7.6,39-.58,28.34.03,17.68.64,9.51,9.81,10.12,20.47c.02.4.07.79.12,1.18Z"/><path class="cls-4" d="m41.82,28.2c-.2.27-.39.55-.6.81-2.95,3.14-7.12,5.11-11.76,5.11-5.02,0-9.5-2.32-12.46-5.92h-4.31c3.43,6.3,9.62,10.54,16.7,10.54,6.52,0,12.3-3.6,15.85-9.1.34-.46.66-.95.97-1.44h-4.37Z"/><path class="cls-2" d="m0,23.98h13.43c9.23,0,8.47-19.25,13.39-19.25s5.99,19.25,14.54,19.25h65.72"/><path class="cls-1" d="m2.6,26.44h13.43c9.23,0,10.17-19.93,15.09-19.93s5.99,19.93,14.54,19.93h64.02"/></svg>