<?xml version="1.0" encoding="UTF-8"?>
<svg xmlns="http://www.w3.org/2000/svg" viewBox="0 0 170.53 46.96">
  <defs>
    <style>
      .cls-1 {
        fill: #1b60a0;
      }

      .cls-2 {
        stroke: #7ca746;
      }

      .cls-2, .cls-3 {
        fill: none;
      }

      .cls-4 {
        fill: #7ca746;
      }

      .cls-3 {
        stroke: #1b60a0;
      }
    </style>
  </defs>
  <g id="pfad_text" data-name="pfad+ text">
    <g>
      <path class="cls-1" d="M60.76,8.67h3.67l6.64,13h-3.46l-1.49-2.92h-7.49l-1.37,2.92h-3.13l6.63-13ZM65.08,16.62l-2.7-5.65-2.7,5.65h5.4Z"/>
      <path class="cls-1" d="M83.01,8.67v2.12h-4.95v10.88h-2.92v-10.88h-4.95v-2.12h12.82Z"/>
      <path class="cls-1" d="M85.02,8.67h7.65c2.56,0,4.83.63,4.83,3.31,0,1.64-1.51,2.67-3.2,2.77v.13c1.69.14,3.87.83,3.87,3.29,0,1.42-1.01,3.49-5.2,3.49h-7.94v-13ZM87.94,13.96h4.16c1.42,0,2.27-.43,2.27-1.59,0-1.4-1.31-1.69-2.83-1.69h-3.6v3.28ZM87.94,19.65h4.03c1.78,0,3.06-.49,3.06-1.82,0-1.49-1.57-1.85-2.86-1.85h-4.23v3.67Z"/>
    </g>
    <path class="cls-1" d="M10.23,21.65h3.51c-.28-1.18-.45-2.41-.45-3.67C13.3,9.09,20.53,1.85,29.43,1.85s16.14,7.24,16.14,16.14c0,1.27-.17,2.49-.45,3.67h3.53c.14-1.11.2-2.24.13-3.4C48.17,7.6,39-.58,28.34.03,17.68.64,9.51,9.81,10.12,20.47c.02.4.07.79.12,1.18Z"/>
    <path class="cls-4" d="M41.82,28.19c-.2.27-.39.55-.6.81-2.95,3.14-7.12,5.11-11.76,5.11-5.02,0-9.5-2.32-12.46-5.92h-4.31c3.43,6.3,9.62,10.54,16.7,10.54,6.52,0,12.3-3.6,15.85-9.1.34-.46.66-.95.97-1.44h-4.37Z"/>
    <path class="cls-2" d="M0,23.98h13.19c9.07,0,8.32-19.25,13.15-19.25s5.88,19.25,14.28,19.25h126.23"/>
    <path class="cls-3" d="M2.6,26.44h13.24c9.11,0,10.03-19.93,14.88-19.93s5.91,19.93,14.33,19.93h125.05"/>
  </g>
  <g id="Ebene_2" data-name="Ebene 2">
    <g>
      <path class="cls-1" d="M54.49,29.98h.79v5.06h2.69v.71h-3.48v-5.77Z"/>
      <path class="cls-1" d="M59.28,33.88c-.02.83.33,1.45,1.15,1.45.49,0,.88-.26.94-.83h.75c-.02.2-.06.53-.34.84-.18.2-.58.54-1.38.54-1.26,0-1.86-.78-1.86-2.06,0-.79.16-1.45.79-1.89.38-.27.86-.3,1.1-.3,1.8,0,1.76,1.59,1.74,2.25h-2.89ZM61.39,33.36c0-.38-.06-1.18-.99-1.18-.49,0-1.08.3-1.1,1.18h2.09Z"/>
      <path class="cls-1" d="M63.2,30h.9v.82h-.9v-.82ZM63.28,31.74h.75v4.01h-.75v-4.01Z"/>
      <path class="cls-1" d="M66.24,32.33c.1-.18.4-.69,1.31-.69.4,0,.9.1,1.27.51.2.23.47.63.47,1.51,0,.78-.18,1.2-.38,1.46-.32.46-.86.69-1.41.69-.19,0-.55-.02-.9-.26-.22-.15-.31-.29-.39-.41l-.02.61h-.73l.02-.72v-5.05h.75v2.34ZM67.38,32.15c-1.15,0-1.15,1.34-1.15,1.6s0,1.52,1.12,1.52c.93,0,1.16-.9,1.16-1.56,0-.4-.08-1.56-1.13-1.56Z"/>
      <path class="cls-1" d="M70.4,32.21v-.46s.74,0,.74,0v.65c.1-.17.38-.73,1.3-.73.36,0,1.46.14,1.46,1.37v2.73h-.77v-2.55c0-.26-.03-.5-.22-.69-.19-.18-.46-.27-.71-.27-.54,0-1.05.39-1.05,1.2v2.31h-.75v-3.55Z"/>
      <path class="cls-1" d="M75.2,30h.9v.82h-.9v-.82ZM75.28,31.74h.75v4.01h-.75v-4.01Z"/>
      <path class="cls-1" d="M77.03,34.98l2.14-2.67h-2.03v-.57h2.89v.64l-2.21,2.79h2.21v.58h-3v-.78Z"/>
      <path class="cls-1" d="M80.68,33.35h2.01v.61h-2.01v-.61Z"/>
      <path class="cls-1" d="M83.71,29.98h.8v5.77h-.8v-5.77Z"/>
      <path class="cls-1" d="M85.96,32.21v-.46s.74,0,.74,0v.65c.1-.17.38-.73,1.3-.73.36,0,1.46.14,1.46,1.37v2.73h-.77v-2.55c0-.26-.03-.5-.22-.69-.19-.18-.46-.27-.71-.27-.54,0-1.05.39-1.05,1.2v2.31h-.75v-3.55Z"/>
      <path class="cls-1" d="M91.25,34.56c0,.3.15.73.88.73.31,0,.54-.06.7-.26.08-.1.13-.24.13-.38,0-.39-.28-.46-.88-.6-.84-.19-1.54-.36-1.54-1.2,0-.74.64-1.22,1.57-1.22.5,0,1.21.14,1.45.62.1.22.1.42.1.58h-.77c.02-.61-.5-.66-.78-.66-.11,0-.82,0-.82.58,0,.37.36.46.57.51,1.11.26,1.35.33,1.59.55.22.21.3.49.3.74,0,.45-.25.83-.54,1.02-.35.22-.78.27-1.19.27-.82,0-1.58-.34-1.57-1.3h.79Z"/>
      <path class="cls-1" d="M94.2,31.73h.71v-.84l.74-.24v1.08h.9v.55h-.9v2.41c0,.2,0,.54.54.54.15,0,.3-.02.36-.04v.58c-.14.02-.35.05-.62.05-.69,0-1.02-.2-1.02-.86v-2.68h-.71v-.55Z"/>
      <path class="cls-1" d="M97.41,30h.9v.82h-.9v-.82ZM97.49,31.74h.75v4.01h-.75v-4.01Z"/>
      <path class="cls-1" d="M99.09,31.73h.71v-.84l.74-.24v1.08h.9v.55h-.9v2.41c0,.2,0,.54.54.54.15,0,.3-.02.36-.04v.58c-.14.02-.35.05-.62.05-.69,0-1.02-.2-1.02-.86v-2.68h-.71v-.55Z"/>
      <path class="cls-1" d="M103.06,31.74v2.58c0,.39.09.89.86.89.38,0,.73-.13.94-.45.17-.24.17-.55.17-.75v-2.27h.78v3.26c0,.08.02.53.02.75h-.78l-.02-.69c-.14.28-.42.73-1.28.73-.99,0-1.45-.57-1.45-1.36v-2.69h.77Z"/>
      <path class="cls-1" d="M106.64,31.73h.71v-.84l.74-.24v1.08h.9v.55h-.9v2.41c0,.2,0,.54.54.54.15,0,.3-.02.36-.04v.58c-.14.02-.35.05-.62.05-.69,0-1.02-.2-1.02-.86v-2.68h-.71v-.55Z"/>
      <path class="cls-1" d="M114.16,30.54c-.13,0-.29-.02-.44-.02-.61,0-.61.3-.61.58v.63h.94v.54h-.94v3.47h-.74v-3.47h-.79v-.54h.79v-.46c0-.55.03-.75.17-.96.17-.26.49-.44,1.01-.44.22,0,.46.03.62.06v.6Z"/>
      <path class="cls-1" d="M115.5,31.74v2.58c0,.39.09.89.86.89.38,0,.73-.13.94-.45.17-.24.17-.55.17-.75v-2.27h.78v3.26c0,.08.02.53.02.75h-.78l-.02-.69c-.14.28-.42.73-1.28.73-.99,0-1.46-.57-1.46-1.36v-2.69h.77ZM115.42,30.01h.74v.82h-.74v-.82ZM116.93,30.01h.74v.82h-.74v-.82Z"/>
      <path class="cls-1" d="M119.74,32.56c0-.27-.02-.55-.04-.82h.76l.02.78c.14-.56.62-.74.96-.79.22-.03.39-.02.52-.02v.74s-.09-.02-.14-.03c-.06,0-.13,0-.22,0-.89,0-1.1.53-1.1,1.22v2.13h-.76v-3.2Z"/>
      <path class="cls-1" d="M56.25,39.58h.86l2.34,5.77h-.87l-.62-1.5h-2.68l-.62,1.5h-.82l2.43-5.77ZM55.52,43.2h2.18l-1.06-2.83-1.12,2.83Z"/>
      <path class="cls-1" d="M60.95,45.67c.03.45.22.78.94.78,1.05,0,1.06-.76,1.06-1.85-.32.66-1.08.68-1.32.68-.37,0-.9-.08-1.23-.5-.34-.41-.46-.94-.46-1.48,0-1.36.8-2.02,1.78-2.02.81,0,1.1.4,1.26.61v-.55h.74l-.02.73v2.51c0,.97-.04,1.36-.2,1.66-.34.64-1.12.72-1.67.72-1.61,0-1.65-.75-1.69-1.29h.8ZM62.7,44.32c.16-.21.27-.42.27-1.15,0-.5-.11-.79-.31-1-.2-.22-.52-.35-.86-.35-.95,0-1.08.96-1.08,1.47,0,.62.18,1.43,1.1,1.43.44,0,.7-.16.88-.4Z"/>
      <path class="cls-1" d="M65.16,42.16c0-.27-.02-.55-.04-.82h.76l.02.78c.14-.56.62-.74.96-.79.22-.03.39-.02.52-.02v.74s-.09-.02-.14-.03c-.06,0-.13,0-.22,0-.89,0-1.1.53-1.1,1.22v2.13h-.76v-3.2Z"/>
      <path class="cls-1" d="M70.67,45.36c-.06-.2-.07-.39-.07-.6-.36.66-.9.73-1.24.73-.92,0-1.42-.52-1.42-1.18,0-.32.11-.83.7-1.18.43-.24,1.07-.26,1.39-.26.19,0,.31,0,.54.02,0-.5,0-.71-.14-.89-.15-.2-.48-.26-.7-.26-.76,0-.8.52-.81.68h-.75c.02-.21.05-.49.28-.76.3-.34.87-.43,1.3-.43.58,0,1.21.18,1.42.59.13.24.14.43.14.62l-.03,1.92c0,.06,0,.6.06,1.01h-.68ZM70.15,43.38c-.3,0-1.45,0-1.45.82,0,.26.16.7.83.7.38,0,.67-.15.86-.43.17-.27.18-.5.19-1.06-.14-.02-.25-.02-.43-.02Z"/>
      <path class="cls-1" d="M72.72,42.16c0-.27-.02-.55-.04-.82h.76l.02.78c.14-.56.62-.74.96-.79.22-.03.39-.02.52-.02v.74s-.09-.02-.14-.03c-.06,0-.13,0-.22,0-.89,0-1.1.53-1.1,1.22v2.13h-.76v-3.2Z"/>
      <path class="cls-1" d="M74.97,41.33h.71v-.84l.74-.24v1.08h.9v.55h-.9v2.41c0,.2,0,.54.54.54.15,0,.3-.02.36-.04v.58c-.14.02-.35.05-.62.05-.69,0-1.02-.2-1.02-.86v-2.68h-.71v-.55Z"/>
      <path class="cls-1" d="M78.71,43.48c-.02.83.33,1.45,1.15,1.45.49,0,.88-.26.94-.83h.75c-.02.2-.06.53-.34.84-.18.2-.58.54-1.38.54-1.26,0-1.86-.78-1.86-2.06,0-.79.16-1.45.79-1.89.38-.27.86-.3,1.1-.3,1.8,0,1.76,1.59,1.74,2.25h-2.89ZM80.83,42.96c0-.38-.06-1.18-.99-1.18-.49,0-1.08.3-1.1,1.18h2.09Z"/>
      <path class="cls-1" d="M84.99,42.63c-.02-.18-.07-.84-.8-.84-1.04,0-1.04,1.21-1.04,1.51,0,.82.2,1.59,1,1.59.64,0,.86-.48.87-.87h.76c-.05.78-.63,1.44-1.62,1.44-.27,0-.9-.06-1.32-.52-.24-.28-.48-.7-.48-1.54,0-1.67,1.02-2.17,1.82-2.17.26,0,.86.06,1.23.5.3.34.32.67.34.9h-.76Z"/>
      <path class="cls-1" d="M86.3,39.59h.76v2.34c.25-.42.74-.66,1.3-.66.42,0,1.03.15,1.26.64.08.16.14.35.14.94v2.51h-.77v-2.37c0-.36,0-1.14-.86-1.14-.56,0-.84.34-.94.54-.13.22-.13.6-.13.85v2.13h-.76v-5.76Z"/>
      <path class="cls-1" d="M91.21,41.81v-.46s.74,0,.74,0v.65c.1-.17.38-.73,1.3-.73.36,0,1.46.14,1.46,1.37v2.73h-.77v-2.55c0-.26-.03-.5-.22-.69-.19-.18-.46-.27-.71-.27-.54,0-1.05.39-1.05,1.2v2.31h-.75v-3.55Z"/>
      <path class="cls-1" d="M96,39.6h.9v.82h-.9v-.82ZM96.08,41.34h.75v4.01h-.75v-4.01Z"/>
      <path class="cls-1" d="M98.24,39.54h.74v3.44l1.5-1.64h.98l-1.7,1.7,1.8,2.31h-.98l-1.61-2.17v2.17h-.74v-5.81Z"/>
      <path class="cls-1" d="M105.21,41.34v2.58c0,.39.09.89.86.89.38,0,.73-.13.94-.45.17-.24.17-.55.17-.75v-2.27h.78v3.26c0,.08.02.53.02.75h-.78l-.02-.69c-.14.28-.42.73-1.28.73-.99,0-1.46-.57-1.46-1.36v-2.69h.77Z"/>
      <path class="cls-1" d="M109.43,41.81v-.46s.74,0,.74,0v.65c.1-.17.38-.73,1.3-.73.36,0,1.46.14,1.46,1.37v2.73h-.77v-2.55c0-.26-.03-.5-.22-.69-.19-.18-.46-.27-.71-.27-.54,0-1.05.39-1.05,1.2v2.31h-.75v-3.55Z"/>
      <path class="cls-1" d="M117.08,39.59h.75v5.12c0,.09.02.43.03.64h-.75l-.02-.64c-.06.11-.15.28-.36.42-.33.22-.72.3-.99.3-.54,0-1.73-.28-1.73-2.04,0-1.53.87-2.19,1.81-2.19.86,0,1.15.51,1.25.68v-2.29ZM116.8,42.17c-.16-.21-.46-.41-.88-.41-1.1,0-1.1,1.34-1.1,1.61,0,.71.18,1.54,1.1,1.54,1.18,0,1.18-1.3,1.18-1.62,0-.58-.14-.9-.3-1.12Z"/>
      <path class="cls-1" d="M121.47,39.58h2.06c.7,0,1.1.07,1.46.42.25.24.41.58.41,1.03,0,.95-.7,1.2-.98,1.3.34.1,1.15.34,1.15,1.44,0,.78-.5,1.18-.7,1.31-.4.26-.85.26-1.3.26h-2.1v-5.77ZM122.24,42.02h1.12c.27,0,1.2,0,1.2-.91s-.73-.87-1.17-.87h-1.15v1.78ZM122.24,44.71h1.37c.63,0,1.14-.34,1.14-1,0-.58-.4-1-1.1-1h-1.4v2Z"/>
      <path class="cls-1" d="M126.67,39.6h.9v.82h-.9v-.82ZM126.75,41.34h.75v4.01h-.75v-4.01Z"/>
      <path class="cls-1" d="M130.71,41.24c1.61,0,1.97,1.26,1.97,2.1,0,1.18-.66,2.15-2.03,2.15s-1.98-.92-1.98-2.09c0-.99.46-2.16,2.04-2.16ZM130.66,44.93c.57,0,1.22-.41,1.22-1.62,0-1-.46-1.53-1.17-1.53-.48,0-1.26.3-1.26,1.56,0,.82.35,1.58,1.21,1.58Z"/>
      <path class="cls-1" d="M135.6,41.24c1.61,0,1.97,1.26,1.97,2.1,0,1.18-.66,2.15-2.03,2.15s-1.98-.92-1.98-2.09c0-.99.46-2.16,2.04-2.16ZM135.55,44.93c.57,0,1.22-.41,1.22-1.62,0-1-.46-1.53-1.17-1.53-.48,0-1.26.3-1.26,1.56,0,.82.35,1.58,1.21,1.58ZM134.47,39.61h.74v.82h-.74v-.82ZM135.98,39.61h.74v.82h-.74v-.82Z"/>
      <path class="cls-1" d="M138.69,39.54h.74v3.44l1.5-1.64h.98l-1.7,1.7,1.8,2.31h-.98l-1.61-2.17v2.17h-.74v-5.81Z"/>
      <path class="cls-1" d="M144.49,41.24c1.61,0,1.97,1.26,1.97,2.1,0,1.18-.66,2.15-2.03,2.15s-1.98-.92-1.98-2.09c0-.99.46-2.16,2.04-2.16ZM144.44,44.93c.57,0,1.22-.41,1.22-1.62,0-1-.46-1.53-1.17-1.53-.48,0-1.26.3-1.26,1.56,0,.82.35,1.58,1.21,1.58Z"/>
      <path class="cls-1" d="M147.66,41.81v-.46s.74,0,.74,0v.65c.1-.17.38-.73,1.3-.73.36,0,1.45.14,1.45,1.37v2.73h-.77v-2.55c0-.26-.03-.5-.22-.69-.19-.18-.46-.27-.71-.27-.54,0-1.05.39-1.05,1.2v2.31h-.75v-3.55Z"/>
      <path class="cls-1" d="M154.26,41.24c1.61,0,1.97,1.26,1.97,2.1,0,1.18-.66,2.15-2.03,2.15s-1.98-.92-1.98-2.09c0-.99.46-2.16,2.04-2.16ZM154.22,44.93c.57,0,1.22-.41,1.22-1.62,0-1-.46-1.53-1.17-1.53-.48,0-1.26.3-1.26,1.56,0,.82.35,1.58,1.21,1.58Z"/>
      <path class="cls-1" d="M157.4,41.88l-.02-.54h.76v.58c.38-.63.93-.69,1.27-.69.89,0,1.17.46,1.31.75.14-.22.46-.75,1.35-.75.58,0,1.47.24,1.47,1.42v2.69h-.76v-2.57c0-.35-.06-.5-.14-.61-.13-.18-.38-.35-.77-.35-.49,0-.75.28-.86.42-.18.25-.18.69-.18.86v2.25h-.76v-2.65c0-.5-.29-.88-.88-.88-.51,0-.79.32-.88.44-.17.23-.18.56-.18.82v2.28h-.76v-3.48Z"/>
      <path class="cls-1" d="M164.89,39.6h.9v.82h-.9v-.82ZM164.97,41.34h.75v4.01h-.75v-4.01Z"/>
      <path class="cls-1" d="M167.64,43.48c-.02.83.33,1.45,1.15,1.45.49,0,.88-.26.94-.83h.75c-.02.2-.06.53-.34.84-.18.2-.58.54-1.38.54-1.26,0-1.86-.78-1.86-2.06,0-.79.16-1.45.79-1.89.38-.27.86-.3,1.1-.3,1.8,0,1.76,1.59,1.74,2.25h-2.89ZM169.76,42.96c0-.38-.06-1.18-.99-1.18-.49,0-1.08.3-1.1,1.18h2.09Z"/>
    </g>
  </g>
</svg>