<?xml version="1.0" encoding="UTF-8"?>
<svg xmlns="http://www.w3.org/2000/svg" width="192" height="77" viewBox="0 0 566.9 226.68"><defs><clipPath id="a" transform="translate(-146.99 -172.28)"><path d="M668.92 299.3a56.76 56.76 0 0 1-77.36 16.13l-23.16 13.42a88.63 88.63 0 0 0 143.26-48.12l-33.3-19.23a56.53 56.53 0 0 1-9.44 37.8z" fill="#0076bd"/></clipPath><clipPath id="b" transform="translate(-146.99 -172.28)"><path d="M574.92 235.65a56.56 56.56 0 0 1 17.33-16.58v-40.43a88.63 88.63 0 0 0-26 148.32L589 313.74a56.76 56.76 0 0 1-14.08-78.09z" fill="#97bf0d"/></clipPath><clipPath id="c" transform="translate(-146.99 -172.28)"><path d="M653.74 220.48a56.6 56.6 0 0 1 24.15 37.59l34.35 19.84A88.67 88.67 0 0 0 595 177.59v39.91a56.75 56.75 0 0 1 58.74 2.98z" fill="#8d8b8d"/></clipPath></defs><path d="M87.89 56.28c-9.72-12.05-22-17.5-39.28-17.5H.01v18.65H46.28c9.92 0 17.89 2.72 23.72 9.53 6.81 7.58 7.39 20.42 7.39 41s-.58 33.45-7.39 41c-5.83 6.81-13.8 9.53-23.72 9.53H21.01V78.43h-21v98.8h48.6c17.31 0 29.56-5.44 39.28-17.5 10.11-12.45 10.5-29.55 10.5-51.72s-.38-39.29-10.5-51.73zM242.47 177.23h-18.28l-28.2-97-31.89 97h-18.27L105.77 38.78h22.17l28 99 31.7-99h16.92l27.81 99 29.95-99h24.12zM357.01 177.23l-9.53-27.8H300.6l-9.52 27.8h-22.37l46.87-138.45h16.92l46.86 138.45zM324.52 70.09l-19.64 61.45h38.7z" fill="#0076bd"/><path d="M11.25 221.31l-5.24-9.22-3.15 3.78v5.43H.01v-18.68h2.83v9.39l7.63-9.39h3.46l-6.06 7.32 6.69 11.36zM20.43 221.31a3.39 3.39 0 0 1-3.65-3.67v-15h2.68v14.85c0 1 .37 1.55 1.44 1.55h1.18v2.28zM32.33 221.31v-1.21a4.38 4.38 0 0 1-3.54 1.36 4.71 4.71 0 0 1-3.57-1.21 4.09 4.09 0 0 1-1-2.86c0-2.23 1.55-3.83 4.62-3.83h3.49v-.95c0-1.71-.81-2.49-2.91-2.49a3.22 3.22 0 0 0-2.91 1.31l-1.73-1.65c1.23-1.47 2.52-1.94 4.75-1.94 3.68 0 5.49 1.58 5.49 4.57v8.89zm-.05-5.88h-3.07c-1.63 0-2.44.68-2.44 1.91s.76 1.89 2.52 1.89a3.2 3.2 0 0 0 2.42-.76 2.56 2.56 0 0 0 .58-2zM46.01 211.12a2.46 2.46 0 0 0-2-.89 2.74 2.74 0 0 0-2.65 3v8.08h-2.68v-13.3h2.62v1.44a4.42 4.42 0 0 1 3.54-1.6 4.12 4.12 0 0 1 3.18 1.26zM51.86 215.43c0 2.31 1.18 3.72 3.38 3.72a4 4 0 0 0 3.23-1.36l1.71 1.6a6.24 6.24 0 0 1-5 2.07c-3.33 0-6-1.76-6-6.82 0-4.33 2.23-6.8 5.64-6.8 3.57 0 5.64 2.57 5.64 6.46v1.13zm5.62-3.67a2.91 2.91 0 0 0-5.28 0 4.12 4.12 0 0 0-.34 1.81h6a4.57 4.57 0 0 0-.38-1.85zM81.62 221.31l-5.25-9.21-3.15 3.78v5.43h-2.83v-18.69h2.83v9.39l7.63-9.39h3.46l-6.06 7.32 6.69 11.36zM95.74 219.89a5.38 5.38 0 0 1-4 1.57 5.32 5.32 0 0 1-4-1.57c-1.26-1.31-1.57-3-1.57-5.25s.31-3.91 1.57-5.22a5.32 5.32 0 0 1 4-1.58 5.38 5.38 0 0 1 4 1.58c1.26 1.31 1.57 3 1.57 5.22s-.3 3.94-1.57 5.25zm-2-8.9a2.71 2.71 0 0 0-2-.76 2.65 2.65 0 0 0-1.94.76c-.81.81-.92 2.21-.92 3.65s.1 2.84.92 3.65a2.66 2.66 0 0 0 1.94.79 2.72 2.72 0 0 0 2-.79c.81-.81.92-2.2.92-3.65s-.13-2.83-.94-3.65zM108.7 221.31v-8.11c0-2.07-1.18-3-2.68-3a2.65 2.65 0 0 0-2.76 3v8.11h-2.68v-13.3h2.63v1.34a4.76 4.76 0 0 1 3.54-1.5 4.61 4.61 0 0 1 3.28 1.21 4.88 4.88 0 0 1 1.34 3.75v8.5zM114.16 221.31v-2.12l6.62-8.79h-6.25v-2.39h9.55v2.13l-6.66 8.79h6.66v2.39zM128.93 215.43c0 2.31 1.18 3.72 3.38 3.72a4 4 0 0 0 3.23-1.36l1.71 1.6a6.24 6.24 0 0 1-5 2.07c-3.33 0-6-1.76-6-6.82 0-4.33 2.23-6.8 5.64-6.8 3.57 0 5.64 2.57 5.64 6.46v1.13zm5.62-3.67a2.91 2.91 0 0 0-5.28 0 4.12 4.12 0 0 0-.34 1.81h6a4.53 4.53 0 0 0-.38-1.85zM150.13 220.28a4.49 4.49 0 0 1-3.23 1.18 4.07 4.07 0 0 1-3.49-1.52v6.78h-2.68V208h2.62v1.42a4.13 4.13 0 0 1 3.52-1.58 4.56 4.56 0 0 1 3.25 1.18c1.29 1.31 1.49 3.44 1.49 5.62s-.19 4.33-1.48 5.64zm-3.94-10.05c-2.44 0-2.78 2-2.78 4.41s.34 4.44 2.78 4.44 2.76-2.07 2.76-4.44-.34-4.41-2.76-4.41zM158.91 221.31a3.46 3.46 0 0 1-3.65-3.7v-7.56h-1.52v-2h1.52v-3.8h2.68v3.8h2.57v2h-2.57v7.43a1.35 1.35 0 0 0 1.47 1.55h1.1v2.28zM165.3 215.43c0 2.31 1.18 3.72 3.39 3.72a4 4 0 0 0 3.23-1.36l1.71 1.6a6.24 6.24 0 0 1-5 2.07c-3.33 0-6-1.76-6-6.82 0-4.33 2.23-6.8 5.64-6.8 3.57 0 5.64 2.57 5.64 6.46v1.13zm5.62-3.67a2.91 2.91 0 0 0-5.28 0 4.15 4.15 0 0 0-.34 1.81h6a4.53 4.53 0 0 0-.38-1.85zM176.88 221.31v-3.2h3.2v3.2zM195.57 221.46a8.5 8.5 0 0 1-6.61-2.47l1.86-1.86a6.28 6.28 0 0 0 4.8 1.81c2.47 0 3.86-1 3.86-2.89a2.39 2.39 0 0 0-.73-1.94 3.68 3.68 0 0 0-2-.79l-2.21-.31a6.31 6.31 0 0 1-3.52-1.5 4.65 4.65 0 0 1-1.39-3.6c0-3.25 2.36-5.46 6.25-5.46a7.74 7.74 0 0 1 5.8 2.13l-1.78 1.79a5.58 5.58 0 0 0-4.12-1.44c-2.21 0-3.38 1.21-3.38 2.91a2.17 2.17 0 0 0 .68 1.73 3.63 3.63 0 0 0 2 .84l2.23.34a6.08 6.08 0 0 1 3.46 1.39 5 5 0 0 1 1.52 3.83c0 3.45-2.78 5.49-6.72 5.49zM213.01 221.31v-1.21a4.38 4.38 0 0 1-3.54 1.36 4.7 4.7 0 0 1-3.57-1.21 4.09 4.09 0 0 1-1-2.86c0-2.23 1.55-3.83 4.62-3.83h3.49v-.95c0-1.71-.81-2.49-2.91-2.49a3.21 3.21 0 0 0-2.91 1.31l-1.73-1.65c1.23-1.47 2.52-1.94 4.75-1.94 3.67 0 5.48 1.58 5.48 4.57v8.89zm-.05-5.88h-3.05c-1.63 0-2.44.68-2.44 1.91s.76 1.89 2.52 1.89a3.2 3.2 0 0 0 2.41-.76 2.56 2.56 0 0 0 .58-2zM227.4 221.31v-1.34a4.76 4.76 0 0 1-3.54 1.5 4.61 4.61 0 0 1-3.28-1.21 4.89 4.89 0 0 1-1.34-3.75v-8.5h2.68v8.11c0 2.07 1.18 3 2.68 3a2.65 2.65 0 0 0 2.76-3v-8.11h2.65v13.3zM243.23 220.28a4.59 4.59 0 0 1-3.25 1.18 4.13 4.13 0 0 1-3.52-1.57v1.42h-2.62v-18.69h2.68v6.72a4.11 4.11 0 0 1 3.49-1.5 4.53 4.53 0 0 1 3.23 1.18c1.29 1.31 1.5 3.44 1.5 5.62s-.22 4.33-1.51 5.64zm-3.94-10.05c-2.44 0-2.78 2-2.78 4.41s.34 4.44 2.78 4.44 2.76-2.07 2.76-4.44-.34-4.41-2.76-4.41zM250.07 215.43c0 2.31 1.18 3.72 3.38 3.72a4 4 0 0 0 3.23-1.36l1.71 1.6a6.24 6.24 0 0 1-5 2.07c-3.33 0-6-1.76-6-6.82 0-4.33 2.23-6.8 5.64-6.8 3.57 0 5.64 2.57 5.64 6.46v1.13zm5.62-3.67a2.91 2.91 0 0 0-5.28 0 4.15 4.15 0 0 0-.34 1.81h6a4.53 4.53 0 0 0-.39-1.85zM269.19 211.12a2.47 2.47 0 0 0-2-.89 2.74 2.74 0 0 0-2.65 3v8.08h-2.68v-13.3h2.62v1.44a4.42 4.42 0 0 1 3.54-1.6 4.12 4.12 0 0 1 3.18 1.26zM275.01 215.43c0 2.31 1.18 3.72 3.38 3.72a4 4 0 0 0 3.23-1.36l1.71 1.6a6.24 6.24 0 0 1-5 2.07c-3.33 0-6-1.76-6-6.82 0-4.33 2.23-6.8 5.64-6.8 3.57 0 5.64 2.57 5.64 6.46v1.13zm5.62-3.67a2.91 2.91 0 0 0-5.28 0 4.12 4.12 0 0 0-.34 1.81h6a4.53 4.53 0 0 0-.35-1.85zM300.01 221.46a6.33 6.33 0 0 1-6.69-6.46v-12.38h2.83v12.26a3.87 3.87 0 1 0 7.74 0v-12.26h2.83v12.39a6.36 6.36 0 0 1-6.71 6.45zM326.77 221.31v-8.11c0-2.07-1.18-3-2.68-3a2.64 2.64 0 0 0-2.76 2.83v8.24h-2.68v-8.11c0-2.07-1.18-3-2.68-3a2.65 2.65 0 0 0-2.76 3v8.11h-2.68v-13.3h2.62v1.34a4.81 4.81 0 0 1 3.54-1.5 4.25 4.25 0 0 1 3.78 1.94 5.05 5.05 0 0 1 4.17-1.94 4.81 4.81 0 0 1 3.36 1.21 4.94 4.94 0 0 1 1.42 3.75v8.5zM346.23 221.31h-2.28l-3.12-9.29-3.1 9.29h-2.31l-4.12-13.3h2.83l2.57 9.37 3.1-9.37h2.07l3.07 9.37 2.57-9.37h2.86zM354.39 215.43c0 2.31 1.18 3.72 3.38 3.72a4 4 0 0 0 3.23-1.36l1.71 1.6a6.23 6.23 0 0 1-5 2.07c-3.33 0-6-1.76-6-6.82 0-4.33 2.23-6.8 5.64-6.8 3.57 0 5.64 2.57 5.64 6.46v1.13zm5.62-3.71a2.91 2.91 0 0 0-5.27 0 4.12 4.12 0 0 0-.34 1.81h6a4.47 4.47 0 0 0-.39-1.81zM369.72 221.31a3.39 3.39 0 0 1-3.65-3.67v-15h2.68v14.85c0 1 .37 1.55 1.44 1.55h1.18v2.28zM377.77 221.31a3.46 3.46 0 0 1-3.65-3.7v-7.56h-1.52v-2h1.52v-3.8h2.68v3.8h2.57v2h-2.57v7.43a1.35 1.35 0 0 0 1.47 1.55h1.1v2.28zM382.67 221.31v-3.2h3.2v3.2z" fill="#8d8b8d"/><path d="M521.93 127.02a56.76 56.76 0 0 1-77.36 16.13l-23.16 13.42a88.63 88.63 0 0 0 143.26-48.12l-33.3-19.23a56.53 56.53 0 0 1-9.44 37.8z" fill="#0076bd"/><g clip-path="url(#a)"><circle cx="630.89" cy="254.23" r="72.75" transform="rotate(-22.78 129.664 532.87)" fill="#fff" opacity=".5"/></g><path d="M427.93 63.37a56.56 56.56 0 0 1 17.33-16.58V6.36a88.63 88.63 0 0 0-26 148.32l22.75-13.22a56.76 56.76 0 0 1-14.08-78.09z" fill="#97bf0d"/><g clip-path="url(#b)"><circle cx="630.89" cy="254.23" r="72.75" transform="rotate(-22.78 129.664 532.87)" fill="#fff" opacity=".5"/></g><path d="M506.75 48.2a56.6 56.6 0 0 1 24.15 37.59l34.35 19.84A88.67 88.67 0 0 0 448.01 5.31v39.91a56.75 56.75 0 0 1 58.74 2.98z" fill="#8d8b8d"/><g clip-path="url(#c)"><circle cx="630.89" cy="254.23" r="72.75" transform="rotate(-22.78 129.664 532.87)" fill="#fff" opacity=".5"/></g></svg>
